<svg xmlns="http://www.w3.org/2000/svg" xmlns:xlink="http://www.w3.org/1999/xlink" width="46" zoomAndPan="magnify" viewBox="0 0 34.5 34.5" height="46" preserveAspectRatio="xMidYMid meet" version="1.0"><defs><clipPath id="fb3add8c37"><path d="M 0 0 L 34.007812 0 L 34.007812 34.007812 L 0 34.007812 Z M 0 0 " clip-rule="nonzero"/></clipPath><clipPath id="c28501662a"><path d="M 17.003906 0 C 7.613281 0 0 7.613281 0 17.003906 C 0 26.394531 7.613281 34.007812 17.003906 34.007812 C 26.394531 34.007812 34.007812 26.394531 34.007812 17.003906 C 34.007812 7.613281 26.394531 0 17.003906 0 Z M 17.003906 0 " clip-rule="nonzero"/></clipPath><clipPath id="f40391a0cd"><path d="M 5.425781 6.785156 L 28.34375 6.785156 L 28.34375 27.484375 L 5.425781 27.484375 Z M 5.425781 6.785156 " clip-rule="nonzero"/></clipPath></defs><g clip-path="url(#fb3add8c37)"><g clip-path="url(#c28501662a)"><path fill="#000000" d="M 0 0 L 34.007812 0 L 34.007812 34.007812 L 0 34.007812 Z M 0 0 " fill-opacity="1" fill-rule="nonzero"/></g></g><path fill="#f0ece6" d="M 20.007812 19.296875 C 20.007812 19.464844 20.066406 19.605469 20.1875 19.726562 C 20.304688 19.84375 20.449219 19.902344 20.617188 19.902344 C 20.785156 19.902344 20.925781 19.84375 21.046875 19.726562 C 21.164062 19.605469 21.222656 19.464844 21.222656 19.296875 C 21.222656 19.128906 21.164062 18.984375 21.046875 18.867188 C 20.925781 18.746094 20.785156 18.6875 20.617188 18.6875 C 20.449219 18.6875 20.304688 18.746094 20.1875 18.867188 C 20.066406 18.984375 20.007812 19.128906 20.007812 19.296875 Z M 20.730469 19.296875 C 20.730469 19.371094 20.695312 19.410156 20.617188 19.410156 C 20.546875 19.402344 20.511719 19.363281 20.511719 19.292969 C 20.511719 19.226562 20.546875 19.1875 20.617188 19.179688 C 20.695312 19.179688 20.730469 19.21875 20.730469 19.296875 Z M 20.730469 19.296875 " fill-opacity="1" fill-rule="nonzero"/><path fill="#f0ece6" d="M 22.785156 19.902344 C 22.953125 19.902344 23.097656 19.84375 23.21875 19.722656 C 23.335938 19.605469 23.394531 19.460938 23.394531 19.292969 C 23.394531 19.125 23.335938 18.984375 23.21875 18.863281 C 23.097656 18.746094 22.957031 18.6875 22.789062 18.6875 C 22.621094 18.6875 22.476562 18.746094 22.359375 18.863281 C 22.238281 18.984375 22.179688 19.128906 22.179688 19.296875 C 22.179688 19.464844 22.238281 19.605469 22.359375 19.722656 C 22.476562 19.84375 22.621094 19.902344 22.785156 19.902344 Z M 22.785156 19.179688 C 22.867188 19.175781 22.90625 19.214844 22.90625 19.292969 C 22.90625 19.375 22.867188 19.414062 22.789062 19.414062 C 22.710938 19.414062 22.671875 19.375 22.671875 19.296875 C 22.671875 19.21875 22.710938 19.179688 22.785156 19.179688 Z M 22.785156 19.179688 " fill-opacity="1" fill-rule="nonzero"/><path fill="#f0ece6" d="M 18.445312 18.6875 C 18.277344 18.6875 18.136719 18.746094 18.015625 18.867188 C 17.898438 18.984375 17.839844 19.128906 17.839844 19.296875 C 17.839844 19.464844 17.898438 19.605469 18.015625 19.726562 C 18.136719 19.84375 18.277344 19.902344 18.445312 19.902344 C 18.613281 19.902344 18.757812 19.84375 18.875 19.726562 C 18.996094 19.605469 19.054688 19.464844 19.054688 19.296875 C 19.054688 19.128906 18.996094 18.984375 18.875 18.867188 C 18.757812 18.746094 18.613281 18.6875 18.445312 18.6875 Z M 18.445312 19.410156 C 18.367188 19.410156 18.328125 19.371094 18.328125 19.292969 C 18.328125 19.214844 18.367188 19.175781 18.449219 19.175781 C 18.527344 19.175781 18.566406 19.21875 18.5625 19.296875 C 18.5625 19.375 18.523438 19.414062 18.445312 19.410156 Z M 18.445312 19.410156 " fill-opacity="1" fill-rule="nonzero"/><path fill="#f0ece6" d="M 16.242188 18.6875 C 16.074219 18.6875 15.929688 18.746094 15.8125 18.867188 C 15.691406 18.984375 15.632812 19.128906 15.632812 19.296875 C 15.632812 19.464844 15.691406 19.605469 15.8125 19.726562 C 15.929688 19.84375 16.074219 19.902344 16.242188 19.902344 C 16.410156 19.902344 16.550781 19.84375 16.671875 19.726562 C 16.789062 19.605469 16.847656 19.464844 16.847656 19.296875 C 16.847656 19.128906 16.789062 18.984375 16.671875 18.867188 C 16.550781 18.746094 16.410156 18.6875 16.242188 18.6875 Z M 16.242188 19.410156 C 16.164062 19.414062 16.121094 19.375 16.121094 19.292969 C 16.121094 19.214844 16.160156 19.175781 16.242188 19.175781 C 16.320312 19.175781 16.359375 19.214844 16.355469 19.296875 C 16.355469 19.371094 16.320312 19.410156 16.242188 19.410156 Z M 16.242188 19.410156 " fill-opacity="1" fill-rule="nonzero"/><path fill="#f0ece6" d="M 24.992188 19.902344 C 25.160156 19.902344 25.300781 19.84375 25.421875 19.722656 C 25.539062 19.605469 25.597656 19.460938 25.597656 19.292969 C 25.597656 19.125 25.539062 18.980469 25.421875 18.863281 C 25.300781 18.746094 25.15625 18.6875 24.988281 18.6875 C 24.820312 18.6875 24.679688 18.746094 24.558594 18.867188 C 24.441406 18.984375 24.382812 19.128906 24.382812 19.296875 C 24.382812 19.464844 24.445312 19.605469 24.5625 19.722656 C 24.679688 19.84375 24.824219 19.902344 24.992188 19.902344 Z M 24.992188 19.179688 C 25.058594 19.1875 25.09375 19.226562 25.09375 19.292969 C 25.09375 19.363281 25.058594 19.402344 24.992188 19.410156 C 24.921875 19.402344 24.886719 19.363281 24.886719 19.292969 C 24.886719 19.226562 24.921875 19.1875 24.992188 19.179688 Z M 24.992188 19.179688 " fill-opacity="1" fill-rule="nonzero"/><g clip-path="url(#f40391a0cd)"><path fill="#f0ece6" d="M 7.5 16.480469 L 6.851562 20.191406 C 6.832031 20.304688 6.859375 20.402344 6.933594 20.488281 C 7.007812 20.574219 7.101562 20.617188 7.214844 20.617188 C 7.273438 20.617188 7.328125 20.601562 7.382812 20.574219 L 11.796875 18.25 C 12.105469 18.296875 12.421875 18.328125 12.734375 18.347656 C 12.683594 18.605469 12.660156 18.871094 12.660156 19.136719 C 12.660156 22.324219 16.230469 24.921875 20.617188 24.921875 C 21.148438 24.925781 21.675781 24.886719 22.203125 24.808594 L 26.621094 27.132812 C 26.753906 27.203125 26.882812 27.191406 27.003906 27.105469 C 27.128906 27.015625 27.175781 26.894531 27.148438 26.742188 L 26.5 23.03125 C 27.839844 21.960938 28.574219 20.582031 28.574219 19.136719 C 28.574219 16.105469 25.347656 13.613281 21.265625 13.375 C 21.3125 13.113281 21.339844 12.851562 21.339844 12.585938 C 21.339844 9.394531 17.769531 6.796875 13.382812 6.796875 C 8.996094 6.796875 5.425781 9.394531 5.425781 12.585938 C 5.425781 14.039062 6.160156 15.417969 7.5 16.480469 Z M 27.851562 19.136719 C 27.851562 20.421875 27.152344 21.648438 25.886719 22.589844 C 25.765625 22.683594 25.71875 22.800781 25.75 22.953125 L 26.308594 26.152344 L 22.433594 24.101562 C 22.382812 24.070312 22.324219 24.058594 22.265625 24.058594 C 22.246094 24.058594 22.226562 24.058594 22.210938 24.058594 C 21.683594 24.144531 21.152344 24.183594 20.617188 24.183594 C 16.625 24.183594 13.382812 21.914062 13.382812 19.121094 C 13.382812 16.324219 16.625 14.074219 20.617188 14.074219 C 24.605469 14.074219 27.851562 16.339844 27.851562 19.136719 Z M 13.382812 7.527344 C 17.371094 7.527344 20.617188 9.792969 20.617188 12.589844 C 20.617188 12.847656 20.589844 13.097656 20.53125 13.347656 C 16.894531 13.375 13.839844 15.183594 12.9375 17.632812 C 12.554688 17.617188 12.175781 17.578125 11.796875 17.519531 C 11.71875 17.503906 11.644531 17.515625 11.570312 17.554688 L 7.691406 19.59375 L 8.25 16.390625 C 8.28125 16.242188 8.234375 16.121094 8.109375 16.03125 C 6.84375 15.09375 6.148438 13.867188 6.148438 12.585938 C 6.148438 9.792969 9.402344 7.527344 13.382812 7.527344 Z M 13.382812 7.527344 " fill-opacity="1" fill-rule="nonzero"/></g></svg>