<svg xmlns="http://www.w3.org/2000/svg" xmlns:xlink="http://www.w3.org/1999/xlink" width="46" zoomAndPan="magnify" viewBox="0 0 34.5 34.5" height="46" preserveAspectRatio="xMidYMid meet" version="1.0"><defs><clipPath id="6018963c3f"><path d="M 0 0 L 34.007812 0 L 34.007812 34.007812 L 0 34.007812 Z M 0 0 " clip-rule="nonzero"/></clipPath><clipPath id="c4156b8252"><path d="M 17.003906 0 C 7.613281 0 0 7.613281 0 17.003906 C 0 26.394531 7.613281 34.007812 17.003906 34.007812 C 26.394531 34.007812 34.007812 26.394531 34.007812 17.003906 C 34.007812 7.613281 26.394531 0 17.003906 0 Z M 17.003906 0 " clip-rule="nonzero"/></clipPath><clipPath id="d1b381e498"><path d="M 7.910156 20 L 13 20 L 13 27.871094 L 7.910156 27.871094 Z M 7.910156 20 " clip-rule="nonzero"/></clipPath><clipPath id="2f91166f6f"><path d="M 7.910156 7.910156 L 27.871094 7.910156 L 27.871094 25 L 7.910156 25 Z M 7.910156 7.910156 " clip-rule="nonzero"/></clipPath></defs><g clip-path="url(#6018963c3f)"><g clip-path="url(#c4156b8252)"><path fill="#000000" d="M 0 0 L 34.007812 0 L 34.007812 34.007812 L 0 34.007812 Z M 0 0 " fill-opacity="1" fill-rule="nonzero"/></g></g><g clip-path="url(#d1b381e498)"><path fill="#f0ece6" d="M 11.882812 28.125 C 11.699219 28.125 11.515625 28.054688 11.371094 27.914062 L 8.195312 24.734375 C 7.910156 24.453125 7.910156 23.996094 8.195312 23.714844 L 11.371094 20.535156 C 11.65625 20.253906 12.109375 20.253906 12.390625 20.535156 C 12.671875 20.816406 12.671875 21.273438 12.390625 21.554688 L 9.722656 24.222656 L 12.390625 26.894531 C 12.671875 27.175781 12.671875 27.632812 12.390625 27.914062 C 12.25 28.054688 12.066406 28.125 11.882812 28.125 Z M 11.882812 28.125 " fill-opacity="1" fill-rule="nonzero"/></g><g clip-path="url(#2f91166f6f)"><path fill="#f0ece6" d="M 19.660156 24.945312 L 8.703125 24.945312 C 8.304688 24.945312 7.980469 24.621094 7.980469 24.222656 C 7.980469 23.824219 8.304688 23.503906 8.703125 23.503906 L 19.660156 23.503906 C 23.550781 23.503906 26.71875 20.335938 26.71875 16.445312 C 26.71875 12.554688 23.550781 9.386719 19.660156 9.386719 L 10.292969 9.386719 C 9.894531 9.386719 9.570312 9.066406 9.570312 8.667969 C 9.570312 8.269531 9.894531 7.945312 10.292969 7.945312 L 19.660156 7.945312 C 24.347656 7.945312 28.160156 11.757812 28.160156 16.445312 C 28.160156 21.132812 24.347656 24.945312 19.660156 24.945312 Z M 19.660156 24.945312 " fill-opacity="1" fill-rule="nonzero"/></g></svg>