<svg xmlns="http://www.w3.org/2000/svg" xmlns:xlink="http://www.w3.org/1999/xlink" width="46" zoomAndPan="magnify" viewBox="0 0 34.5 34.5" height="46" preserveAspectRatio="xMidYMid meet" version="1.0"><defs><clipPath id="b79c026ed5"><path d="M 0 0 L 34.007812 0 L 34.007812 34.007812 L 0 34.007812 Z M 0 0 " clip-rule="nonzero"/></clipPath><clipPath id="65187e839b"><path d="M 17.003906 0 C 7.613281 0 0 7.613281 0 17.003906 C 0 26.394531 7.613281 34.007812 17.003906 34.007812 C 26.394531 34.007812 34.007812 26.394531 34.007812 17.003906 C 34.007812 7.613281 26.394531 0 17.003906 0 Z M 17.003906 0 " clip-rule="nonzero"/></clipPath><clipPath id="3011f03312"><path d="M 9.226562 5.257812 L 24.75 5.257812 L 24.75 26.695312 L 9.226562 26.695312 Z M 9.226562 5.257812 " clip-rule="nonzero"/></clipPath></defs><g clip-path="url(#b79c026ed5)"><g clip-path="url(#65187e839b)"><path fill="#000000" d="M 0 0 L 34.007812 0 L 34.007812 34.007812 L 0 34.007812 Z M 0 0 " fill-opacity="1" fill-rule="nonzero"/></g></g><g clip-path="url(#3011f03312)"><path fill="#f0ece6" d="M 22.816406 14.5625 L 22.816406 10.878906 C 22.816406 7.78125 20.207031 5.257812 17 5.257812 C 13.792969 5.257812 11.179688 7.78125 11.179688 10.878906 C 11.179688 15.375 11.175781 14.164062 11.191406 14.5625 C 9.976562 14.5625 9.242188 15.507812 9.242188 16.503906 L 9.242188 25.035156 C 9.242188 26.101562 10.078125 26.972656 11.101562 26.972656 L 22.894531 26.972656 C 23.917969 26.972656 24.753906 26.101562 24.753906 25.035156 L 24.753906 16.503906 C 24.753906 15.511719 24.019531 14.5625 22.816406 14.5625 Z M 11.957031 10.878906 C 11.957031 8.207031 14.21875 6.03125 17 6.03125 C 19.777344 6.03125 22.039062 8.207031 22.039062 10.878906 L 22.039062 14.5625 L 20.488281 14.5625 L 20.488281 10.878906 C 20.488281 9.0625 18.921875 7.582031 17 7.582031 C 15.074219 7.582031 13.507812 9.0625 13.507812 10.878906 L 13.507812 14.5625 L 11.96875 14.5625 C 11.953125 14.175781 11.957031 15.277344 11.957031 10.878906 Z M 19.710938 14.5625 L 14.285156 14.5625 L 14.285156 10.878906 C 14.285156 9.488281 15.5 8.359375 17 8.359375 C 18.496094 8.359375 19.710938 9.488281 19.710938 10.878906 Z M 23.980469 25.035156 C 23.980469 25.675781 23.492188 26.199219 22.894531 26.199219 L 11.101562 26.199219 C 10.503906 26.199219 10.015625 25.675781 10.015625 25.035156 L 10.015625 16.503906 C 10.015625 15.859375 10.503906 15.339844 11.101562 15.339844 L 22.894531 15.339844 C 23.492188 15.339844 23.980469 15.859375 23.980469 16.503906 Z M 23.980469 25.035156 " fill-opacity="1" fill-rule="nonzero"/></g><path fill="#f0ece6" d="M 17 25.035156 C 14.644531 25.035156 12.730469 23.121094 12.730469 20.769531 C 12.730469 18.417969 14.644531 16.503906 17 16.503906 C 19.351562 16.503906 21.265625 18.417969 21.265625 20.769531 C 21.265625 23.121094 19.351562 25.035156 17 25.035156 Z M 17 17.277344 C 15.074219 17.277344 13.507812 18.84375 13.507812 20.769531 C 13.507812 22.691406 15.074219 24.257812 17 24.257812 C 18.921875 24.257812 20.488281 22.691406 20.488281 20.769531 C 20.488281 18.84375 18.921875 17.277344 17 17.277344 Z M 17 17.277344 " fill-opacity="1" fill-rule="nonzero"/><path fill="#f0ece6" d="M 15.804688 22.363281 L 14.785156 21.351562 C 14.421875 20.988281 14.96875 20.441406 15.332031 20.800781 L 16.167969 21.632812 L 18.664062 19.136719 C 19.027344 18.773438 19.574219 19.324219 19.210938 19.6875 L 16.535156 22.363281 C 16.335938 22.5625 16.003906 22.5625 15.804688 22.363281 Z M 15.804688 22.363281 " fill-opacity="1" fill-rule="nonzero"/></svg>