<svg xmlns="http://www.w3.org/2000/svg" xmlns:xlink="http://www.w3.org/1999/xlink" width="46" zoomAndPan="magnify" viewBox="0 0 34.5 34.5" height="46" preserveAspectRatio="xMidYMid meet" version="1.0"><defs><clipPath id="32fb51d324"><path d="M 0 0 L 34.007812 0 L 34.007812 34.007812 L 0 34.007812 Z M 0 0 " clip-rule="nonzero"/></clipPath><clipPath id="3653c031af"><path d="M 17.003906 0 C 7.613281 0 0 7.613281 0 17.003906 C 0 26.394531 7.613281 34.007812 17.003906 34.007812 C 26.394531 34.007812 34.007812 26.394531 34.007812 17.003906 C 34.007812 7.613281 26.394531 0 17.003906 0 Z M 17.003906 0 " clip-rule="nonzero"/></clipPath><clipPath id="2cd5baf572"><path d="M 21 13 L 28.128906 13 L 28.128906 22 L 21 22 Z M 21 13 " clip-rule="nonzero"/></clipPath><clipPath id="c585f3b579"><path d="M 22 19 L 27 19 L 27 23.242188 L 22 23.242188 Z M 22 19 " clip-rule="nonzero"/></clipPath><clipPath id="fdec4a158e"><path d="M 9 19 L 13 19 L 13 23.242188 L 9 23.242188 Z M 9 19 " clip-rule="nonzero"/></clipPath><clipPath id="068d9ecda9"><path d="M 5.949219 10.675781 L 21 10.675781 L 21 22 L 5.949219 22 Z M 5.949219 10.675781 " clip-rule="nonzero"/></clipPath></defs><g clip-path="url(#32fb51d324)"><g clip-path="url(#3653c031af)"><path fill="#000000" d="M 0 0 L 34.007812 0 L 34.007812 34.007812 L 0 34.007812 Z M 0 0 " fill-opacity="1" fill-rule="nonzero"/></g></g><g clip-path="url(#2cd5baf572)"><path fill="#f0ece6" d="M 27.542969 15.683594 L 25.636719 13.78125 C 25.371094 13.515625 25.011719 13.367188 24.636719 13.367188 L 21.089844 13.367188 L 21.089844 21.4375 L 22.1875 21.4375 C 22.1875 20.125 23.253906 19.066406 24.558594 19.066406 C 25.871094 19.066406 26.933594 20.132812 26.933594 21.4375 L 27.359375 21.4375 C 27.730469 21.4375 28.03125 21.136719 28.03125 20.765625 L 28.03125 16.886719 C 28.039062 16.433594 27.859375 16 27.542969 15.683594 Z M 21.773438 16.164062 L 21.773438 14.046875 L 24.640625 14.046875 C 24.835938 14.046875 25.019531 14.121094 25.15625 14.261719 L 27.058594 16.164062 Z M 21.773438 16.164062 " fill-opacity="1" fill-rule="nonzero"/></g><g clip-path="url(#c585f3b579)"><path fill="#f0ece6" d="M 24.566406 19.554688 C 23.523438 19.554688 22.679688 20.394531 22.679688 21.4375 C 22.679688 22.480469 23.523438 23.324219 24.566406 23.324219 C 25.605469 23.324219 26.449219 22.480469 26.449219 21.4375 C 26.449219 20.394531 25.605469 19.554688 24.566406 19.554688 Z M 24.566406 22.410156 C 24.027344 22.410156 23.59375 21.972656 23.59375 21.4375 C 23.59375 20.898438 24.03125 20.46875 24.566406 20.46875 C 25.105469 20.46875 25.535156 20.902344 25.535156 21.4375 C 25.539062 21.976562 25.105469 22.410156 24.566406 22.410156 Z M 24.566406 22.410156 " fill-opacity="1" fill-rule="nonzero"/></g><g clip-path="url(#fdec4a158e)"><path fill="#f0ece6" d="M 11.078125 19.554688 C 10.035156 19.554688 9.191406 20.394531 9.191406 21.4375 C 9.191406 22.480469 10.035156 23.324219 11.078125 23.324219 C 12.121094 23.324219 12.960938 22.480469 12.960938 21.4375 C 12.960938 20.394531 12.121094 19.554688 11.078125 19.554688 Z M 11.078125 22.410156 C 10.539062 22.410156 10.105469 21.972656 10.105469 21.4375 C 10.105469 20.898438 10.542969 20.46875 11.078125 20.46875 C 11.609375 20.46875 12.046875 20.902344 12.046875 21.4375 C 12.054688 21.976562 11.617188 22.410156 11.078125 22.410156 Z M 11.078125 22.410156 " fill-opacity="1" fill-rule="nonzero"/></g><g clip-path="url(#068d9ecda9)"><path fill="#f0ece6" d="M 19.933594 10.675781 L 6.628906 10.675781 C 6.257812 10.675781 5.957031 10.976562 5.957031 11.347656 L 5.957031 20.761719 C 5.957031 21.132812 6.257812 21.433594 6.628906 21.433594 L 8.707031 21.433594 C 8.707031 20.121094 9.769531 19.0625 11.078125 19.0625 C 12.382812 19.0625 13.449219 20.125 13.449219 21.433594 L 20.597656 21.433594 L 20.597656 11.347656 C 20.601562 10.976562 20.304688 10.675781 19.933594 10.675781 Z M 19.933594 10.675781 " fill-opacity="1" fill-rule="nonzero"/></g></svg>